<svg enable-background="new 0 0 498.4 498.4" viewBox="0 0 498.4 498.4" xmlns="http://www.w3.org/2000/svg"><path d="m98.4 432c-11.2 11.2-28.8 11.2-39.2 0-11.2-11.2-11.2-28.8 0-39.2l200-200c11.2-11.2 28.8-11.2 39.2 0 11.2 11.2 11.2 28.8 0 39.2z" fill="#a35d17"/><path d="m298.4 192.8c11.2 11.2 11.2 28.8 0 39.2l-200 200c-11.2 11.2-28.8 11.2-39.2 0" fill="#6b400c"/><path d="m92.8 481.6c-12.8 12.8-32.8 12.8-45.6 0l-37.6-37.6c-12.8-12.8-12.8-32.8 0-45.6 12.8-12.8 32.8-12.8 45.6 0l37.6 37.6c12.8 12.8 12.8 32.8 0 45.6z" fill="#f4ad31"/><path d="m55.2 398.4 37.6 37.6c12.8 12.8 12.8 32.8 0 45.6-12.8 12.8-32.8 12.8-45.6 0" fill="#dd820a"/><path d="m427.2 267.2c-33.6 33.6-69.6 15.2-103.2-18.4l-82.4-82.4c-33.6-33.6-51.2-69.6-18.4-103.2l14.4-14.4c33.6-33.6 69.6-15.2 103.2 18.4l82.4 82.4c33.6 33.6 51.2 69.6 18.4 103.2z" fill="#f4ad31"/><path d="m340.8 68 82.4 82.4c33.6 33.6 51.2 69.6 18.4 103.2l-14.4 14.4c-33.6 33.6-69.6 15.2-103.2-18.4" fill="#dd820a"/><path d="m205.6 121.6c-6.4 6.4-16.8 6.4-23.2 0-6.4-6.4-6.4-16.8 0-23.2l89.6-90.4c6.4-6.4 16.8-6.4 23.2 0 6.4 6.4 6.4 16.8 0 23.2z" fill="#f4ad31"/><path d="m295.2 8c6.4 6.4 6.4 16.8 0 23.2l-89.6 90.4c-6.4 6.4-16.8 6.4-23.2 0" fill="#dd820a"/><path d="m392.8 308.8c-6.4 6.4-16.8 6.4-23.2 0-6.4-6.4-6.4-16.8 0-23.2l89.6-89.6c6.4-6.4 16.8-6.4 23.2 0 6.4 6.4 6.4 16.8 0 23.2z" fill="#f4ad31"/><path d="m483.2 196c6.4 6.4 6.4 16.8 0 23.2l-90.4 89.6c-6.4 6.4-16.8 6.4-23.2 0" fill="#dd820a"/><path d="m309.6 253.6c-5.6 5.6-15.2 5.6-20.8 0l-50.4-50.4c-5.6-5.6-5.6-15.2 0-20.8 5.6-5.6 15.2-5.6 20.8 0l50.4 50.4c5.6 5.6 5.6 15.2 0 20.8z" fill="#dd820a"/><path d="m321.6 407.2h168v72h-168z" fill="#d32a0f"/><g fill="#af1909"><path d="m321.6 407.2h168v72"/><path d="m497.6 488.8c0 3.2-2.4 6.4-6.4 6.4h-171.2c-3.2 0-6.4-2.4-6.4-6.4v-4c0-3.2 2.4-6.4 6.4-6.4h172c3.2 0 6.4 2.4 6.4 6.4v4z"/><path d="m497.6 400.8c0 3.2-2.4 6.4-6.4 6.4h-171.2c-3.2 0-6.4-2.4-6.4-6.4v-4c0-3.2 2.4-6.4 6.4-6.4h172c3.2 0 6.4 2.4 6.4 6.4v4z"/></g></svg>